<?xml version="1.0" encoding="utf-8"?>
<!-- Generator: Adobe Illustrator 21.0.0, SVG Export Plug-In . SVG Version: 6.00 Build 0)  -->
<svg version="1.1" id="Layer_1" xmlns="http://www.w3.org/2000/svg" xmlns:xlink="http://www.w3.org/1999/xlink" x="0px" y="0px"
	 viewBox="0 0 269.8 250" style="enable-background:new 0 0 269.8 250;" xml:space="preserve">
<style type="text/css">
	.st0{fill:#FFFFFF;}
</style>
<g>
	<polygon class="st0" points="151.7,17.4 82.8,86.4 65.4,68.9 134.3,0 	"/>
	<polygon class="st0" points="201.8,67.5 184.3,85 137.2,37.8 154.7,20.4 	"/>
	<polygon class="st0" points="204.7,108.2 134.3,178.6 65.4,109.7 82.9,92.2 132.8,142.2 135.7,139.3 169.5,105.6 185.8,89.3 	"/>
	<polygon class="st0" points="166.8,73.2 151.9,88 134.3,70.4 100.6,104.1 85.8,89.3 134.3,40.8 	"/>
</g>
<g>
	<path class="st0" d="M14.2,250L0,215h7.9l4.6,11.4l2.5,7.1l2.4-6.9L22,215h7.9l-14.2,35H14.2z"/>
	<path class="st0" d="M33.9,237.3V215h6.9v22.3c0,7.2,11.1,7.2,11.1,0V215h6.8v22.3C58.7,253.6,33.9,253.6,33.9,237.3z"/>
	<path class="st0" d="M66.3,249.3V215h17.2v6.9H73.1v6.9h9v6.9h-9v6.9H84v6.9H66.3z"/>
	<path class="st0" d="M88.4,229.7h17.4v6.4H88.4V229.7z"/>
	<path class="st0" d="M119.1,221.9v6.9h8.7v6.9h-8.7v13.7h-6.9V215h17.1v6.9H119.1z"/>
	<path class="st0" d="M141.9,215v27.4h10.9v6.9H135V215H141.9z"/>
	<path class="st0" d="M158.5,237.3V215h6.9v22.3c0,7.2,11.1,7.2,11.1,0V215h6.8v22.3C183.3,253.6,158.5,253.6,158.5,237.3z"/>
	<path class="st0" d="M190.8,249.3V215H208v6.9h-10.3v6.9h9v6.9h-9v6.9h10.9v6.9H190.8z"/>
	<path class="st0" d="M221.9,249.3H215v-35h1.8l17.3,20.1v-19.4h6.9V250h-1.8l-17.4-19.4V249.3z"/>
	<path class="st0" d="M254.4,249.3v-27.4h-8.5v-6.8h23.9v6.8h-8.5v27.4H254.4z"/>
</g>
</svg>
