<?xml version="1.0" encoding="utf-8"?>
<!-- Generator: Adobe Illustrator 21.0.0, SVG Export Plug-In . SVG Version: 6.00 Build 0)  -->
<svg version="1.1" id="Layer_1" xmlns="http://www.w3.org/2000/svg" xmlns:xlink="http://www.w3.org/1999/xlink" x="0px" y="0px"
	 viewBox="0 0 727.4 150" style="enable-background:new 0 0 727.4 150;" xml:space="preserve">
<style type="text/css">
	.st0{fill:#3F81C7;}
</style>
<g>
	<g>
		<g>
			<polygon class="st0" points="72.5,14.6 14.7,72.5 0,57.9 57.9,0 			"/>
		</g>
		<g>
			<polygon class="st0" points="114.6,56.7 99.9,71.4 60.4,31.8 75,17.1 			"/>
		</g>
		<g>
			<polygon class="st0" points="117,90.9 57.9,150 0,92.1 14.7,77.5 56.7,119.5 59.1,117 87.5,88.7 101.2,75 			"/>
		</g>
		<g>
			<polygon class="st0" points="85.2,61.5 72.7,73.9 57.9,59.1 29.6,87.5 17.1,75 57.9,34.3 			"/>
		</g>
	</g>
</g>
<g>
	<g>
		<path class="st0" d="M177.5,113.4L147,38.1h17l9.8,24.5l5.4,15.3l5.3-14.7l9.9-25.1h17l-30.5,75.3H177.5z"/>
		<path class="st0" d="M219.9,86.2V38.1h14.8v47.9c0,15.5,23.9,15.5,23.9,0V38.1h14.6v48.1C273.2,121.3,219.9,121.3,219.9,86.2z"/>
		<path class="st0" d="M289.6,111.9V38.1h36.9v14.7h-22.2v14.7h19.4v14.7h-19.4v14.7h23.4v14.7H289.6z"/>
		<path class="st0" d="M337.2,69.8h37.5v13.7h-37.5V69.8z"/>
		<path class="st0" d="M403.1,52.9v14.7h18.8v14.7h-18.8v29.5h-14.8V38.1h36.8v14.7H403.1z"/>
		<path class="st0" d="M452.2,38.1v59h23.4v14.7h-38.2V38.1H452.2z"/>
		<path class="st0" d="M487.9,86.2V38.1h14.8v47.9c0,15.5,23.9,15.5,23.9,0V38.1h14.6v48.1C541.2,121.3,487.9,121.3,487.9,86.2z"/>
		<path class="st0" d="M557.5,111.9V38.1h36.9v14.7h-22.2v14.7h19.4v14.7h-19.4v14.7h23.4v14.7H557.5z"/>
		<path class="st0" d="M624.2,111.9h-14.7V36.6h3.9l37.2,43.3V38.2h14.8v75.2h-3.9l-37.3-41.7V111.9z"/>
		<path class="st0" d="M694.3,111.9v-59h-18.4V38.2h51.5v14.6H709v59H694.3z"/>
	</g>
</g>
</svg>
